<svg width="297" height="100" viewBox="0 0 297 100" fill="none" xmlns="http://www.w3.org/2000/svg">
<mask id="mask0_1692_2607" style="mask-type:luminance" maskUnits="userSpaceOnUse" x="0" y="21" width="297" height="79">
<path d="M297 21.5762H0V99.9994H297V21.5762Z" fill="white"/>
</mask>
<g mask="url(#mask0_1692_2607)">
<path d="M17.1956 62.9522L14.399 76.7165C14.21 77.6371 14.1162 78.2628 14.1162 78.5902C14.1162 80.3796 15.6482 81.2743 18.7138 81.2743H20.8282L20.2382 84.0946H0.507812L1.09788 81.2743H1.90307C4.01748 81.2743 5.48189 80.8821 6.29784 80.0943C7.11686 79.3082 7.67159 78.206 7.96355 76.7878L14.6448 43.5474C14.8123 42.7175 14.8968 42.0951 14.8968 41.6802C14.8968 39.8875 13.3725 38.9896 10.3238 38.9896H9.48788L10.0472 36.1758H26.735C36.4496 36.1758 41.3084 39.9783 41.3084 47.5801C41.3084 54.9679 37.3823 59.6441 29.5317 61.6102L34.1293 75.9644C34.8746 78.2595 35.6306 79.7183 36.3974 80.3407C37.1626 80.9631 38.146 81.2743 39.3477 81.2743H39.8456L39.3477 84.0946H38.5118C34.8638 84.0946 32.2853 83.5873 30.7733 82.571C29.2612 81.5563 28.0596 79.4427 27.1714 76.2302L23.502 62.9522H17.1956ZM17.8164 59.8078H22.7275C26.5168 59.8078 29.4364 58.7866 31.4863 56.7411C33.5392 54.6972 34.5657 51.7748 34.5657 47.9756C34.5657 45.0029 33.9388 42.8277 32.6849 41.4533C31.431 40.0755 29.2812 39.3851 26.2372 39.3851H21.8854L17.8164 59.8078Z" fill="#E9C140"/>
<path d="M45.6965 80.7492H57.9711C61.556 80.7492 63.9593 78.9143 65.181 75.2447L66.1767 72.3596H69.502L66.7053 84.0946H32.5859L33.0777 81.2743H33.9197C36.0741 81.2743 37.5708 80.8772 38.4067 80.0814C39.2457 79.2823 39.8112 78.185 40.1031 76.7878L46.7229 43.8132C46.8459 43.2005 46.9073 42.664 46.9073 42.2053C46.9073 41.155 46.6154 40.3576 46.0345 39.813C45.4568 39.2651 44.2551 38.9896 42.4327 38.9896H41.6275L42.1868 36.1758H74.2532L72.2372 47.9107H68.9119L69.0963 45.8425C69.1977 44.7922 69.2499 44.1812 69.2499 44.0077C69.2499 41.0124 67.7379 39.5147 64.7138 39.5147H54.025L50.3924 57.383H65.7403L65.1195 60.6571H49.7655L45.6965 80.7492Z" fill="#E9C140"/>
<path d="M83.8738 76.7165C83.7048 77.5512 83.6218 78.1752 83.6218 78.5902C83.6218 80.3796 85.1538 81.2743 88.2194 81.2743H89.6823L89.0922 84.0946H69.2943L69.8905 81.2743H71.3472C73.4816 81.2743 74.9629 80.8885 75.7912 80.1138C76.6179 79.3358 77.1772 78.2271 77.4692 76.7878L84.9618 39.5147H78.8706C75.8419 39.5147 73.7167 41.3528 72.4966 45.0256L71.5992 47.9107H68.3047L70.9723 36.1758H106.807L104.754 47.9107H101.459C101.668 46.1602 101.773 44.7955 101.773 43.8132C101.773 40.9476 100.373 39.5147 97.5744 39.5147H91.391L83.8738 76.7165Z" fill="#E9C140"/>
<path d="M106.657 62.9522L103.86 76.7165C103.671 77.6371 103.577 78.2628 103.577 78.5902C103.577 80.3796 105.109 81.2743 108.175 81.2743H110.289L109.699 84.0946H89.9688L90.5588 81.2743H91.364C93.4784 81.2743 94.9428 80.8821 95.7588 80.0943C96.5778 79.3082 97.1325 78.206 97.4245 76.7878L104.106 43.5474C104.273 42.7175 104.358 42.0951 104.358 41.6802C104.358 39.8875 102.833 38.9896 99.7847 38.9896H98.9488L99.5082 36.1758H116.196C125.911 36.1758 130.769 39.9783 130.769 47.5801C130.769 54.9679 126.843 59.6441 118.993 61.6102L123.59 75.9644C124.335 78.2595 125.092 79.7183 125.858 80.3407C126.624 80.9631 127.607 81.2743 128.809 81.2743H129.306L128.809 84.0946H127.973C124.325 84.0946 121.746 83.5873 120.234 82.571C118.722 81.5563 117.521 79.4427 116.632 76.2302L112.963 62.9522H106.657ZM107.277 59.8078H112.188C115.978 59.8078 118.897 58.7866 120.947 56.7411C123 54.6972 124.027 51.7748 124.027 47.9756C124.027 45.0029 123.4 42.8277 122.146 41.4533C120.892 40.0755 118.742 39.3851 115.698 39.3851H111.346L107.277 59.8078Z" fill="#E9C140"/>
<path d="M150.89 35.418C155.819 35.418 159.796 37.0372 162.82 40.274C165.844 43.5076 167.356 48.0411 167.356 53.8762C167.356 61.5444 164.993 68.6243 160.269 75.1158C155.549 81.6041 149.49 84.8474 142.094 84.8474C137.057 84.8474 133.017 83.1714 129.973 79.8163C126.928 76.4627 125.406 71.9357 125.406 66.2336C125.406 58.541 127.788 51.4822 132.555 45.0588C137.32 38.6321 143.431 35.418 150.89 35.418ZM142.463 81.1454C147.749 81.1454 152.053 78.0593 155.377 71.8871C158.704 65.7149 160.368 59.1116 160.368 52.0738C160.368 47.8985 159.49 44.6876 157.737 42.4395C155.987 40.1881 153.528 39.0616 150.361 39.0616C145.054 39.0616 140.726 42.1591 137.38 48.3524C134.036 54.5472 132.364 61.1409 132.364 68.1332C132.364 72.3312 133.265 75.5486 135.069 77.787C136.871 80.027 139.336 81.1454 142.463 81.1454Z" fill="#E9C140"/>
<path d="M157.945 84.0946L158.505 81.2743H159.341C161.332 81.2743 162.772 80.8707 163.662 80.0619C164.55 79.2547 165.151 78.0521 165.463 76.4571L172.082 43.5474C172.245 42.7175 172.328 42.0951 172.328 41.6802C172.328 39.8875 170.795 38.9896 167.731 38.9896H166.925L167.485 36.1758H183.798C188.395 36.1758 191.957 37.3023 194.486 39.5536C197.014 41.8018 198.279 44.9916 198.279 49.1231C198.279 54.2158 196.658 58.2096 193.417 61.1045C190.175 63.996 185.311 65.4418 178.825 65.4418H174.105L171.836 76.7165C171.647 77.6371 171.554 78.2628 171.554 78.5902C171.554 80.3796 173.086 81.2743 176.151 81.2743H178.235L177.676 84.0946H157.945ZM174.756 62.265H178.112C187.061 62.265 191.536 57.9065 191.536 49.188C191.536 42.6527 188.438 39.3851 182.243 39.3851H179.323L174.756 62.265Z" fill="#E9C140"/>
<path d="M187.297 84.0946L187.856 81.2743H188.692C190.684 81.2743 192.123 80.8707 193.013 80.0619C193.901 79.2547 194.502 78.0521 194.814 76.4571L201.434 43.5474C201.597 42.7175 201.68 42.0951 201.68 41.6802C201.68 39.8875 200.146 38.9896 197.082 38.9896H196.277L196.836 36.1758H213.149C217.747 36.1758 221.309 37.3023 223.838 39.5536C226.366 41.8018 227.63 44.9916 227.63 49.1231C227.63 54.2158 226.009 58.2096 222.768 61.1045C219.526 63.996 214.663 65.4418 208.177 65.4418H203.456L201.188 76.7165C200.999 77.6371 200.905 78.2628 200.905 78.5902C200.905 80.3796 202.437 81.2743 205.503 81.2743H207.587L207.027 84.0946H187.297ZM204.108 62.265H207.464C216.413 62.265 220.888 57.9065 220.888 49.188C220.888 42.6527 217.79 39.3851 211.594 39.3851H208.674L204.108 62.265Z" fill="#E9C140"/>
<path d="M244.698 36.1758L244.139 38.9896H243.297C241.269 38.9896 239.807 39.3964 238.915 40.2085C238.025 41.0173 237.424 42.2183 237.114 43.8132L230.531 76.7165C230.342 77.6598 230.248 78.2838 230.248 78.5902C230.248 80.3796 231.78 81.2743 234.846 81.2743H235.657L235.098 84.0946H216.578L217.07 81.2743H217.912C221.431 81.2743 223.513 79.6697 224.157 76.4571L230.777 43.5474C230.939 42.7175 231.022 42.0951 231.022 41.6802C231.022 39.8875 229.489 38.9896 226.425 38.9896H225.62L226.179 36.1758H244.698Z" fill="#E9C140"/>
<path d="M242.931 80.7492H255.205C258.79 80.7492 261.194 78.9143 262.415 75.2447L263.411 72.3596H266.736L263.94 84.0946H229.82L230.312 81.2743H231.154C233.308 81.2743 234.805 80.8772 235.641 80.0814C236.48 79.2823 237.046 78.185 237.338 76.7878L243.957 43.8132C244.08 43.2005 244.142 42.664 244.142 42.2053C244.142 41.155 243.85 40.3576 243.269 39.813C242.691 39.2651 241.489 38.9896 239.667 38.9896H238.862L239.421 36.1758H271.488L269.472 47.9107H266.146L266.331 45.8425C266.432 44.7922 266.484 44.1812 266.484 44.0077C266.484 41.0124 264.972 39.5147 261.948 39.5147H251.259L247.627 57.383H262.975L262.354 60.6571H247L242.931 80.7492Z" fill="#E9C140"/>
<path d="M266.036 70.0649C266.036 73.4978 266.894 76.2565 268.611 78.3442C270.332 80.4318 272.694 81.4757 275.698 81.4757C278.661 81.4757 281.017 80.7009 282.767 79.1481C284.516 77.597 285.391 75.4882 285.391 72.8203C285.391 70.6986 284.889 68.9076 283.886 67.4456C282.881 65.9803 280.711 64.2541 277.376 62.2653C273.979 60.1907 271.623 58.0625 270.308 55.8792C268.993 53.6927 268.335 51.2209 268.335 48.4622C268.335 44.5981 269.721 41.4698 272.496 39.0742C275.274 36.6802 279.033 35.4824 283.775 35.4824C287.463 35.4824 290.404 36.1616 292.601 37.5182C294.797 38.8716 295.896 40.6092 295.896 42.7309C295.896 45.8348 294.021 47.3859 290.272 47.3859C290.272 44.7634 289.682 42.6855 288.502 41.1554C287.321 39.6253 285.579 38.8603 283.277 38.8603C280.752 38.8603 278.681 39.6253 277.063 41.1554C275.448 42.6855 274.641 44.7407 274.641 47.3211C274.641 49.2191 275.071 50.861 275.932 52.2485C276.792 53.6359 278.982 55.4124 282.503 57.5778C285.837 59.6315 288.245 61.6754 289.725 63.7111C291.208 65.7437 291.95 68.0583 291.95 70.6549C291.95 75.0895 290.478 78.5484 287.537 81.0283C284.594 83.5098 280.502 84.7498 275.262 84.7498C270.93 84.7498 267.49 83.8486 264.942 82.0462C262.397 80.2438 261.125 77.9552 261.125 75.1803C261.125 73.6291 261.586 72.3892 262.508 71.4588C263.43 70.5301 264.605 70.0649 266.036 70.0649Z" fill="#E9C140"/>
</g>
<mask id="mask1_1692_2607" style="mask-type:luminance" maskUnits="userSpaceOnUse" x="39" y="0" width="46" height="42">
<path d="M84.9677 0H39.3359V41.0788H84.9677V0Z" fill="white"/>
</mask>
<g mask="url(#mask1_1692_2607)">
<path d="M48.092 29.8248C47.7862 30.2268 47.4128 30.3549 46.9749 30.2074C46.6614 30.102 46.4955 29.8929 46.4785 29.5801C46.4678 29.3694 46.5477 29.136 46.7213 28.8799C48.8542 25.8068 50.9071 22.9541 52.8771 20.3186C54.8501 17.6814 56.84 15.1529 58.8469 12.733C60.8537 10.3131 62.9589 7.91744 65.1609 5.54613L65.4682 5.86382V6.31604C64.1544 6.31604 62.8022 6.14909 61.4085 5.81519C60.0378 5.48778 58.6563 5.10526 57.2626 4.66763C55.8858 4.23486 54.5366 3.85072 53.2167 3.51521C51.9213 3.18455 50.6889 3.01436 49.5211 3.00302C48.3855 2.99167 47.3437 3.22345 46.3971 3.7016C45.3568 4.23811 44.5547 5.0226 43.9923 6.05346C43.4268 7.08918 43.1656 8.34858 43.2086 9.83166C43.2501 10.728 43.5052 11.5271 43.9723 12.2289C44.4456 12.9388 45.0449 13.4883 45.7717 13.8773C46.4955 14.2647 47.2346 14.4478 47.9844 14.4251C48.6329 14.4041 49.2429 14.1885 49.8161 13.7801C50.3862 13.37 50.8564 12.7119 51.2237 11.8042C51.6017 10.8706 51.7891 9.62743 51.7891 8.07142C51.7891 7.42632 51.9659 6.94493 52.3162 6.624C52.662 6.30955 53.0523 6.17664 53.4856 6.22851C53.922 6.27876 54.2739 6.50405 54.5428 6.9044C54.8056 7.29665 54.8824 7.83153 54.7702 8.51067C54.4829 10.1753 53.965 11.5433 53.2167 12.613C52.4668 13.6844 51.5802 14.49 50.5568 15.0297C49.5441 15.563 48.4946 15.8693 47.4082 15.9455H47.3959C46.1681 15.9974 44.9865 15.7802 43.854 15.2972C42.7107 14.8093 41.7718 14.0896 41.0389 13.135C40.289 12.1592 39.9141 11.0149 39.9141 9.70037C39.9141 8.15408 40.4749 6.76987 41.5967 5.54775C42.6692 4.37912 43.9708 3.37257 45.4982 2.52973C47.1946 1.60909 48.8711 1.05638 50.526 0.86998C52.1672 0.683582 53.7576 0.733829 55.2957 1.0191C56.8201 1.30113 58.2614 1.69986 59.6229 2.21529C60.9674 2.72423 62.209 3.22021 63.3461 3.70485C64.4602 4.17976 65.4298 4.52338 66.2565 4.73571C67.0894 4.93831 68.0098 4.94804 69.0163 4.76488C70.0489 4.57848 71.0769 4.2608 72.1003 3.81506C72.6243 3.58815 73.0699 3.59301 73.4341 3.83127C73.786 4.06143 73.995 4.40181 74.0611 4.85241C74.1241 5.2868 74.0257 5.69849 73.7645 6.08912C73.5017 6.47812 73.0623 6.73259 72.4445 6.85092C71.4304 7.02921 70.4024 7.02435 69.359 6.83471C68.3679 6.65317 67.4151 6.49109 66.5024 6.34683L66.5669 5.89948L66.8696 6.21878C64.9611 8.2335 63.1879 10.3552 61.5514 12.5839C59.9118 14.819 58.2998 17.2389 56.7156 19.8469C55.1282 22.4613 53.4318 25.3724 51.6263 28.5784C51.3958 28.9933 51.0746 29.23 50.6582 29.2851C50.357 29.324 50.0266 29.3305 49.6671 29.3046C49.3736 29.2835 49.0739 29.3046 48.7681 29.3694C48.5207 29.4213 48.2933 29.5769 48.0828 29.8362L47.757 29.5412L48.092 29.8248ZM47.422 29.2592L47.4313 29.2462C47.7693 28.8296 48.1596 28.5752 48.5991 28.4828C48.9802 28.4017 49.3551 28.3758 49.7254 28.4017C50.0297 28.4244 50.3048 28.4196 50.5522 28.3855C50.6874 28.3693 50.7996 28.2786 50.8887 28.1148C52.6988 24.9007 54.4014 21.9816 55.9934 19.359C57.5915 16.7284 59.2172 14.2858 60.8722 12.0312C62.5317 9.77007 64.3281 7.62082 66.2627 5.57855L66.4163 5.41808L66.6299 5.45212C67.5488 5.59638 68.5061 5.76008 69.505 5.94162C70.4531 6.11505 71.3812 6.11991 72.2909 5.96107C72.6796 5.88651 72.9363 5.75522 73.0638 5.56558C73.1913 5.37594 73.242 5.18306 73.2128 4.99018C73.1867 4.81351 73.1099 4.68384 72.9824 4.60118C72.8656 4.525 72.6812 4.5412 72.4276 4.65142C71.3458 5.12309 70.2579 5.45861 69.1623 5.65797C68.0406 5.86058 67.0049 5.84599 66.0537 5.61421C65.1855 5.39215 64.1775 5.03556 63.025 4.54445C61.8971 4.06468 60.6663 3.57194 59.334 3.06623C58.0186 2.56863 56.6234 2.18287 55.1482 1.91057C53.6884 1.63988 52.1794 1.59288 50.6167 1.76955C49.0678 1.9446 47.4943 2.4649 45.8962 3.33205C44.4502 4.12951 43.2224 5.07771 42.2129 6.17826C41.2525 7.22371 40.7715 8.39883 40.7715 9.70037C40.7715 10.8009 41.0834 11.7556 41.7058 12.566C42.345 13.3975 43.1686 14.0297 44.1767 14.4592C45.1955 14.8936 46.2573 15.0865 47.3621 15.0411L47.379 15.4933L47.3514 15.0427C48.3225 14.973 49.2645 14.6991 50.1741 14.2193C51.0731 13.746 51.8568 13.0312 52.5252 12.0749C53.1952 11.117 53.6623 9.87866 53.9251 8.35669C53.9957 7.92392 53.9681 7.61596 53.8421 7.42794C53.7222 7.24965 53.5716 7.14915 53.3903 7.12808C53.2059 7.10539 53.0338 7.16698 52.8771 7.30962C52.725 7.44901 52.6481 7.70348 52.6481 8.07142C52.6481 9.75062 52.4361 11.1138 52.0135 12.1592C51.5802 13.2306 51.007 14.0199 50.2971 14.5289C49.5887 15.0362 48.825 15.3036 48.009 15.3312C47.1132 15.3571 46.2373 15.1416 45.3829 14.6845C44.5301 14.2274 43.8263 13.5823 43.2701 12.7492C42.7077 11.9047 42.4003 10.9419 42.3512 9.85921C42.302 8.20433 42.6016 6.78608 43.2486 5.60124C43.8985 4.41154 44.8251 3.50548 46.0268 2.8847C47.0947 2.34657 48.261 2.08562 49.5288 2.09696C50.7627 2.10993 52.0596 2.28984 53.418 2.63509C54.7518 2.97546 56.1148 3.36285 57.5069 3.80048C58.8822 4.23162 60.2468 4.60928 61.599 4.93345C62.9282 5.25114 64.219 5.40998 65.4682 5.40998H66.4886L65.774 6.17988C63.5828 8.53984 61.4899 10.9225 59.4923 13.3295C57.4947 15.738 55.5139 18.2536 53.5517 20.8794C51.5863 23.5051 49.5426 26.3481 47.419 29.4067C47.3806 29.4634 47.3544 29.5104 47.3391 29.5477C47.336 29.5558 47.3345 29.5606 47.3345 29.5639C47.336 29.5542 47.336 29.5428 47.336 29.5298C47.3329 29.4731 47.3114 29.4229 47.273 29.3791C47.2607 29.3661 47.2484 29.3548 47.2346 29.3467V29.3451C47.2699 29.358 47.2976 29.3597 47.3175 29.3532C47.3467 29.3418 47.3821 29.311 47.422 29.2592Z" fill="#E9C140"/>
<path d="M64.2184 28.8288C63.7159 28.2421 63.5146 27.5824 63.6145 26.8514C63.7036 26.1966 63.9525 25.5271 64.3628 24.8448C64.7531 24.1964 65.2141 23.5594 65.7458 22.9386L67.204 21.2351C67.6466 20.7229 67.98 20.2788 68.2075 19.9028C68.292 19.7634 68.3365 19.6548 68.3442 19.5786H68.3519L68.3458 19.5705L68.3381 19.5624C68.3289 19.5527 68.3089 19.5494 68.2766 19.5543C68.1583 19.577 67.997 19.6662 67.7941 19.8218C67.2978 20.2059 66.6816 20.7991 65.9425 21.6014C65.2848 22.3179 64.5995 23.1137 63.8834 23.989C63.1658 24.8658 62.4989 25.7071 61.8842 26.511C61.268 27.3182 60.7671 27.986 60.3799 28.5144L60.3707 28.5273C59.9435 29.0655 59.4487 29.3442 58.8847 29.3588C58.3039 29.375 57.8552 29.166 57.5371 28.7299C57.1975 28.2631 57.196 27.691 57.5325 27.0135C57.6969 26.6925 57.8198 26.4559 57.9013 26.3068C57.9889 26.1496 58.1287 25.9324 58.3208 25.6536C58.5052 25.3861 58.8156 24.9485 59.252 24.3423L61.1574 21.6825L64.5027 16.9593L64.8453 17.23L64.495 16.9691C64.7716 16.5557 65.1526 16.0095 65.6351 15.3304C66.1146 14.6561 66.6324 13.9105 67.1918 13.092C67.7542 12.2686 68.3166 11.463 68.879 10.6769C69.4414 9.8908 69.9515 9.18411 70.4095 8.55522C70.8751 7.91661 71.2485 7.43522 71.5327 7.11267C72.0936 6.49188 72.6683 6.2212 73.2584 6.30062C73.87 6.38329 74.2864 6.7107 74.5092 7.28286C74.732 7.85178 74.5891 8.49525 74.0789 9.21167L74.0743 9.21653L74.0713 9.22301C73.873 9.48235 73.349 10.0189 72.4962 10.8325C71.6649 11.6251 70.6676 12.6219 69.5059 13.8246C68.3488 15.0208 67.181 16.3726 66.0009 17.8816L65.669 17.5931L66.0101 17.8686L65.1511 19.0454L63.7804 20.945C63.2826 21.6355 62.82 22.3276 62.3898 23.0181C61.9657 23.7021 61.643 24.2823 61.4217 24.7605C61.328 24.9615 61.2757 25.1138 61.265 25.2176C61.2634 25.2289 61.2619 25.2386 61.2634 25.2451C61.2634 25.2403 61.2619 25.2338 61.2588 25.2257C61.2465 25.1819 61.2204 25.1462 61.182 25.1171L61.1912 25.1252L61.2004 25.1317C61.1405 25.0814 61.0744 25.0587 61.0022 25.0652C60.9884 25.0668 60.9776 25.0684 60.9684 25.0717C60.9699 25.0717 60.9745 25.0684 60.9822 25.0636C61.0575 25.0214 61.162 24.9291 61.2988 24.7848C61.623 24.4428 62.0056 24.0035 62.4451 23.4687C62.8892 22.9289 63.3333 22.3762 63.7774 21.8105C64.2291 21.2384 64.6056 20.7781 64.9083 20.4344C65.7166 19.5349 66.4311 18.7682 67.0535 18.1361C67.7188 17.4602 68.3381 17.0225 68.9143 16.8199C69.5874 16.5833 70.2143 16.7405 70.7967 17.2932C71.2392 17.7276 71.3929 18.2755 71.2546 18.9384C71.1409 19.4846 70.8935 20.0811 70.514 20.7278C70.1513 21.3437 69.7364 21.9726 69.2708 22.6112C68.816 23.2336 68.3965 23.8334 68.0108 24.4071C67.6405 24.9598 67.3746 25.4364 67.2148 25.84C67.118 26.088 67.1042 26.25 67.1749 26.3246L66.8706 26.6439L67.1626 26.3116C67.3423 26.4867 67.705 26.4948 68.249 26.3343C68.8974 26.1447 69.6657 25.7135 70.5508 25.0458C71.4544 24.3634 72.3886 23.4768 73.3536 22.3892L73.5718 22.1412L74.6306 22.7004L74.2633 23.1413C73.4305 24.1429 72.55 25.0944 71.6249 25.9988C70.6907 26.9097 69.7733 27.6731 68.8728 28.2907C67.9447 28.9261 67.0919 29.3216 66.3159 29.4788C65.4369 29.6554 64.7378 29.4383 64.2184 28.8288ZM64.8561 28.2242C65.1603 28.5808 65.5937 28.7024 66.1561 28.5889C66.8214 28.456 67.5713 28.1027 68.4042 27.5321C69.2647 26.9421 70.1436 26.2095 71.041 25.3343C71.9461 24.4525 72.8051 23.5222 73.6195 22.5432L73.9422 22.843L73.7501 23.2466L73.475 23.1024L73.6671 22.6971L73.9806 23.0067C72.9772 24.1397 71.9999 25.0636 71.0502 25.7816C70.0822 26.5126 69.2263 26.9875 68.4795 27.2063C67.6282 27.4576 66.9951 27.3798 66.5802 26.9762L66.574 26.9697L66.5679 26.9648C66.2268 26.6034 66.1776 26.1139 66.4234 25.4931C66.6078 25.0263 66.9029 24.4914 67.3101 23.8836C67.7019 23.3001 68.1291 22.6923 68.5901 22.0601C69.0388 21.4442 69.4368 20.8413 69.7841 20.2513C70.1129 19.6905 70.3234 19.1896 70.4156 18.7455C70.4848 18.4181 70.4187 18.1588 70.222 17.9659C69.8885 17.6482 69.5428 17.5526 69.1863 17.6774C68.733 17.8378 68.2198 18.2074 67.6497 18.7877C67.0366 19.4101 66.3328 20.1654 65.5383 21.0504C65.2448 21.3826 64.8791 21.8284 64.4381 22.3892C63.9894 22.9597 63.5423 23.5173 63.0936 24.0619C62.6403 24.613 62.2438 25.0684 61.9057 25.425C61.7106 25.6309 61.5385 25.7768 61.3894 25.861C61.1113 26.0199 60.8701 26.0118 60.6641 25.8383L60.9331 25.485L60.6826 25.8546C60.3261 25.5855 60.3153 25.0879 60.6503 24.3634C60.887 23.8512 61.2281 23.2385 61.6722 22.5221C62.1117 21.8138 62.588 21.1055 63.0966 20.3955L64.4719 18.4927L65.334 17.3111L65.3386 17.3046C66.5387 15.7712 67.7265 14.3968 68.9051 13.1779C70.076 11.9671 71.081 10.9622 71.92 10.1615C72.739 9.38024 73.2323 8.87939 73.4013 8.65734L73.7363 8.93937L73.3921 8.66868C73.7071 8.22619 73.8146 7.87933 73.7163 7.6281C73.6195 7.38011 73.4305 7.23585 73.1493 7.19857C72.8466 7.15643 72.5177 7.3331 72.1628 7.72535C71.8969 8.03007 71.5389 8.49039 71.0902 9.10631C70.6323 9.73358 70.1252 10.4387 69.5643 11.2215C69.0065 12.0028 68.4472 12.8035 67.8878 13.622C67.3254 14.4438 66.8045 15.1942 66.322 15.8734C65.8441 16.546 65.4677 17.0841 65.1957 17.491L65.1926 17.4975L61.8412 22.2287L59.9358 24.8902C59.5025 25.4915 59.1951 25.9226 59.0138 26.1868C58.8402 26.4397 58.7157 26.6326 58.6435 26.7639C58.5651 26.9032 58.4483 27.1269 58.2916 27.4333C58.1256 27.7688 58.101 28.0184 58.2178 28.1789C58.3577 28.3701 58.5728 28.4625 58.8617 28.4544C59.1675 28.4463 59.4502 28.2777 59.7114 27.9471L60.0403 28.2372L59.7007 27.96C60.091 27.4268 60.5965 26.7541 61.2158 25.9437C61.8366 25.1317 62.5096 24.2823 63.2334 23.3973C63.9602 22.5107 64.6579 21.7019 65.3278 20.9709C66.0992 20.1313 66.7523 19.5057 67.287 19.0924C68.0092 18.5332 68.5717 18.4878 68.9727 18.953L68.6562 19.2577L68.9589 18.9384C69.3046 19.3031 69.2954 19.7861 68.9312 20.3874C68.6777 20.8088 68.315 21.2935 67.8418 21.843L66.3835 23.5432C65.8841 24.1284 65.4523 24.7232 65.0881 25.3294C64.7439 25.9032 64.5349 26.4527 64.4642 26.9794C64.4028 27.4316 64.5334 27.8466 64.8561 28.2242Z" fill="#E9C140"/>
<path d="M73.8086 28.9035C72.9204 28.2698 72.4241 27.4561 72.318 26.4609C72.2181 25.5257 72.3764 24.5386 72.7959 23.4996C73.2016 22.4914 73.7747 21.5351 74.5123 20.6307C75.2699 19.6825 76.1181 18.8818 77.057 18.2302C78.0097 17.5689 78.9394 17.154 79.8444 16.9854C80.8248 16.8039 81.6177 16.9887 82.2231 17.5414C82.6795 17.9579 82.8716 18.5463 82.7994 19.3049C82.7348 19.9775 82.4859 20.6874 82.051 21.433C81.6269 22.1624 81.0538 22.8497 80.3331 23.4964C79.6017 24.1528 78.7273 24.6456 77.7101 24.9778C77.1492 25.1658 76.679 25.1302 76.3025 24.8709C75.9383 24.6196 75.7155 24.2744 75.6356 23.8351C75.5557 23.3991 75.6295 23.0036 75.8538 22.647C76.0997 22.2597 76.5038 22.0652 77.0693 22.0652C78.1004 22.0652 78.924 21.9063 79.5402 21.587C80.1472 21.2726 80.5943 20.89 80.8832 20.4362C81.1659 19.9953 81.3073 19.5788 81.3073 19.1882C81.3073 18.838 81.2289 18.5884 81.0707 18.4361L81.063 18.4296L81.0568 18.4215C80.8832 18.24 80.6404 18.2043 80.3285 18.3129C79.8967 18.4653 79.4265 18.7586 78.9179 19.1946C78.3908 19.6485 77.8822 20.1769 77.3966 20.7831C76.9371 21.3374 76.5484 21.942 76.2334 22.5968C75.9276 23.2306 75.7539 23.8432 75.7124 24.4348C75.674 24.9811 75.7985 25.4771 76.0843 25.9195L75.7309 26.1756L76.0735 25.9033C76.4592 26.4463 76.9786 26.6878 77.6332 26.6295C78.3754 26.563 79.2298 26.1999 80.2009 25.5419C81.2044 24.8595 82.257 23.9372 83.3556 22.7783L83.6599 22.4574L84.4328 23.2743L84.2069 23.5888C83.6215 24.404 82.9069 25.2323 82.0664 26.0703C81.2197 26.9131 80.3208 27.6376 79.3681 28.2455C78.3954 28.8662 77.4365 29.2666 76.4931 29.4449C75.4866 29.6345 74.5922 29.4546 73.8101 28.9051L73.8086 28.9035ZM74.2864 28.1515C74.8765 28.568 75.5619 28.7009 76.3409 28.5534C77.1815 28.3946 78.042 28.0331 78.924 27.4707C79.8245 26.8969 80.6758 26.2097 81.4763 25.4122C82.2831 24.6083 82.9653 23.8189 83.5231 23.0409L83.8658 23.3148L83.5616 23.6358L83.3556 23.4169L83.6599 23.0976L83.9626 23.4169C82.8194 24.6229 81.7207 25.584 80.665 26.3021C79.5755 27.0428 78.589 27.4529 77.7055 27.5307C76.7358 27.6182 75.9629 27.2567 75.3867 26.4463L75.3821 26.4382L75.3759 26.4301C74.9764 25.8126 74.8028 25.1253 74.8565 24.3684C74.9057 23.6552 75.1101 22.9291 75.4681 22.1867C75.8154 21.4654 76.241 20.8025 76.742 20.1979C77.2629 19.5496 77.8069 18.9807 78.377 18.4928C78.967 17.9871 79.5264 17.6419 80.0565 17.4555C80.705 17.2269 81.2397 17.3355 81.6623 17.7813L81.3596 18.1022L81.6484 17.7667C81.9942 18.0973 82.1663 18.5706 82.1663 19.1882C82.1663 19.7619 81.9757 20.3471 81.5947 20.9435C81.2213 21.5287 80.6619 22.0149 79.9182 22.3991C79.1837 22.78 78.2341 22.9712 77.0693 22.9712C76.8096 22.9712 76.6436 23.0312 76.5683 23.1495C76.4731 23.3002 76.4423 23.4721 76.4777 23.6633C76.5115 23.8513 76.6098 24.0021 76.7712 24.1123C76.9218 24.216 77.1492 24.216 77.4565 24.1139C78.3616 23.8173 79.1361 23.3829 79.7768 22.8075C80.4299 22.2224 80.9431 21.6065 81.3196 20.9597C81.6869 20.3309 81.8943 19.749 81.945 19.2157C81.988 18.7667 81.8928 18.4377 81.6623 18.227C81.2612 17.8623 80.705 17.7456 79.992 17.8769C79.2037 18.0228 78.3831 18.3923 77.5287 18.9855C76.659 19.5901 75.8707 20.3341 75.1623 21.2207C74.4831 22.0538 73.9576 22.9323 73.5857 23.8546C73.2262 24.746 73.0879 25.5824 73.1709 26.3604C73.2477 27.0785 73.6196 27.6765 74.2895 28.1531L74.2864 28.1515Z" fill="#E9C140"/>
<path d="M47.7565 29.5401C47.5721 29.7816 47.3539 29.8594 47.1049 29.7735C46.8545 29.6909 46.8422 29.4818 47.068 29.1447C49.1978 26.0812 51.2477 23.2318 53.2146 20.5995C55.1815 17.9673 57.1637 15.4452 59.1644 13.0334C61.1682 10.6216 63.2672 8.23245 65.4646 5.86276C64.1861 5.86276 62.8646 5.70068 61.5001 5.37651C60.1386 5.05234 58.7664 4.67468 57.3819 4.24191C56.0005 3.8059 54.6467 3.41852 53.3191 3.08138C51.9914 2.74101 50.7268 2.56595 49.5267 2.55623C48.325 2.54326 47.2217 2.78963 46.2137 3.29534C45.0904 3.8756 44.2253 4.72006 43.6198 5.83035C43.0129 6.94225 42.7317 8.28107 42.7778 9.85005C42.8269 10.8404 43.1066 11.7221 43.6198 12.4953C44.1362 13.2652 44.7877 13.8617 45.5744 14.2847C46.3643 14.7045 47.1725 14.9039 47.9962 14.8812C48.7291 14.8552 49.416 14.6137 50.0553 14.155C50.6976 13.698 51.2185 12.9734 51.6165 11.9831C52.0175 10.9944 52.2188 9.69121 52.2188 8.0736C52.2188 7.5679 52.3433 7.20159 52.5938 6.97142C52.8473 6.74289 53.1285 6.64563 53.4358 6.67967C53.7462 6.71533 53.9983 6.87742 54.1919 7.16593C54.3886 7.45606 54.4393 7.8791 54.3455 8.43667C54.0705 10.0283 53.5788 11.3315 52.8704 12.3462C52.1604 13.3576 51.3245 14.1194 50.3626 14.6283C49.4037 15.134 48.4095 15.4242 47.3815 15.4971C46.2137 15.5457 45.0904 15.3399 44.0132 14.8812C42.9391 14.4241 42.0586 13.7466 41.3702 12.8519C40.6849 11.9572 40.3438 10.9068 40.3438 9.70094C40.3438 8.27945 40.8631 7.00222 41.905 5.86925C42.9453 4.73303 44.2099 3.75404 45.6974 2.93227C47.3446 2.03756 48.9689 1.50268 50.5716 1.32438C52.1727 1.14285 53.7217 1.19147 55.2183 1.46702C56.7181 1.74418 58.1379 2.13805 59.4779 2.647C60.8178 3.1527 62.0533 3.64868 63.1842 4.1317C64.3183 4.61147 65.3079 4.95995 66.153 5.17552C67.0458 5.39272 68.0231 5.40568 69.0849 5.21442C70.1498 5.01992 71.2085 4.69413 72.2626 4.23543C72.6514 4.06686 72.9649 4.06362 73.2031 4.22246C73.4443 4.37806 73.5872 4.61471 73.6333 4.92915C73.6825 5.24036 73.6087 5.54184 73.412 5.83035C73.2184 6.12048 72.8712 6.31336 72.3671 6.40737C71.4037 6.57594 70.4248 6.56945 69.4291 6.38792C68.4364 6.20638 67.4822 6.0443 66.5648 5.90166C64.6425 7.92935 62.8585 10.0672 61.2112 12.3137C59.5639 14.557 57.9443 16.9883 56.3554 19.6076C54.765 22.2236 53.0671 25.1363 51.26 28.3472C51.1002 28.6373 50.882 28.7978 50.6084 28.8334C50.3334 28.8723 50.0307 28.8788 49.6988 28.8529C49.3668 28.8302 49.0288 28.8545 48.6846 28.9242C48.3404 28.9972 48.03 29.203 47.7565 29.5401Z" fill="#E9C140"/>
<path d="M64.5384 28.5275C64.1281 28.0445 63.9622 27.508 64.0405 26.9197C64.122 26.328 64.3509 25.7186 64.7289 25.0913C65.1054 24.4608 65.5495 23.8449 66.0627 23.2436C66.579 22.639 67.0662 22.0701 67.5256 21.5384C67.9835 21.0068 68.3323 20.5432 68.5705 20.1445C68.8118 19.7474 68.841 19.4508 68.6566 19.2563C68.4261 18.9937 68.0542 19.0602 67.5379 19.4573C67.0247 19.856 66.3916 20.4654 65.6386 21.2856C64.9748 22.0117 64.2818 22.8157 63.5611 23.6974C62.8389 24.5759 62.1689 25.4187 61.5512 26.2259C60.9365 27.0347 60.4341 27.7041 60.0453 28.2358C59.7011 28.6734 59.3123 28.8938 58.8775 28.9036C58.4441 28.9165 58.1122 28.7674 57.8817 28.4562C57.6528 28.1418 57.6651 27.7301 57.9186 27.2244C58.0784 26.9099 58.1998 26.6798 58.2812 26.5371C58.3596 26.3913 58.4902 26.1854 58.6746 25.9212C58.8559 25.6538 59.1633 25.2194 59.5966 24.618C60.0299 24.0135 60.6661 23.1269 61.502 21.9599C62.3379 20.7896 63.4535 19.2141 64.8519 17.2335C65.1254 16.8234 65.5034 16.2804 65.9828 15.6061C66.4623 14.9286 66.9816 14.1782 67.5441 13.3564C68.1049 12.5362 68.6643 11.7339 69.2221 10.951C69.7829 10.1649 70.2931 9.45824 70.7525 8.83097C71.2105 8.20532 71.5777 7.73365 71.8528 7.41759C72.3076 6.91188 72.7578 6.68983 73.205 6.7498C73.6506 6.81139 73.9549 7.04641 74.1147 7.45649C74.2745 7.86818 74.1485 8.36254 73.7397 8.94119C73.5554 9.18431 73.0452 9.70299 72.2093 10.4972C71.3733 11.293 70.3715 12.2963 69.2036 13.5055C68.0388 14.7114 66.8633 16.0762 65.6755 17.5965C65.5111 17.8137 65.2222 18.2043 64.8089 18.77C64.3986 19.3373 63.9422 19.9694 63.4382 20.6697C62.9372 21.3699 62.4701 22.0701 62.0368 22.7703C61.6019 23.4705 61.27 24.0702 61.041 24.5662C60.8105 25.0589 60.7767 25.3669 60.9365 25.4868C61.0503 25.5825 61.2746 25.4544 61.6065 25.1043C61.9384 24.7542 62.3272 24.3101 62.7744 23.7687C63.22 23.2241 63.6656 22.6698 64.1081 22.1025C64.5538 21.5368 64.9272 21.083 65.2268 20.741C66.0259 19.8511 66.7342 19.0926 67.3535 18.4653C67.9712 17.8348 68.5367 17.4312 69.05 17.2529C69.5663 17.0714 70.0534 17.1978 70.5128 17.6289C70.8324 17.945 70.94 18.3518 70.8386 18.8478C70.7356 19.3406 70.5067 19.89 70.1502 20.4946C69.7968 21.0959 69.3911 21.7102 68.9332 22.3359C68.4737 22.9632 68.0496 23.5661 67.6608 24.1448C67.2705 24.725 66.9909 25.2323 66.8188 25.6684C66.6497 26.1011 66.6682 26.4269 66.8741 26.6473C67.1722 26.9375 67.6701 26.9812 68.3677 26.777C69.0638 26.5695 69.8751 26.1157 70.8017 25.4155C71.7268 24.7153 72.6841 23.8109 73.6721 22.699L73.9426 22.8416C73.119 23.8319 72.2492 24.7736 71.3365 25.6684C70.4222 26.5598 69.5248 27.307 68.6443 27.9116C67.7623 28.5178 66.9617 28.8906 66.241 29.0332C65.5188 29.1791 64.9518 29.0105 64.5384 28.5275Z" fill="#E9C140"/>
<path d="M74.0453 28.5276C73.2662 27.97 72.8298 27.2633 72.7361 26.4075C72.6469 25.5517 72.7945 24.6424 73.1848 23.678C73.5735 22.7104 74.1221 21.7913 74.832 20.9226C75.565 20.0068 76.3825 19.2353 77.2845 18.608C78.1896 17.9823 79.0639 17.5901 79.9091 17.4345C80.7573 17.2757 81.4334 17.4248 81.9374 17.8818C82.2816 18.1979 82.4245 18.6582 82.3677 19.2628C82.3093 19.8641 82.0803 20.5076 81.6793 21.1949C81.2767 21.8821 80.7327 22.5353 80.0443 23.1529C79.359 23.7672 78.5384 24.2323 77.5795 24.5468C77.1447 24.6894 76.7943 24.67 76.5285 24.4884C76.2657 24.3069 76.1059 24.0605 76.049 23.7493C75.9907 23.4349 76.0429 23.1512 76.2027 22.9C76.3656 22.6455 76.6529 22.5175 77.0632 22.5175C78.1604 22.5175 79.0486 22.3424 79.7247 21.9923C80.4008 21.6422 80.9048 21.2078 81.2367 20.6892C81.5686 20.1705 81.7346 19.6713 81.7346 19.1915C81.7346 18.7085 81.607 18.3454 81.3535 18.1023C81.0585 17.7878 80.6682 17.7133 80.1857 17.8818C79.7062 18.0504 79.1915 18.3713 78.6429 18.8414C78.0928 19.3131 77.5672 19.8625 77.0632 20.4882C76.5838 21.0684 76.1781 21.7038 75.8462 22.3943C75.5143 23.0815 75.3253 23.7526 75.2807 24.4041C75.2346 25.0525 75.3822 25.6425 75.7233 26.1741C76.2058 26.8484 76.8542 27.1515 77.6656 27.0818C78.4769 27.0089 79.3958 26.6215 80.4254 25.9213C81.458 25.2211 82.5336 24.2793 83.6523 23.0945L83.8613 23.3149C83.2866 24.1108 82.5889 24.9196 81.7653 25.7397C80.9417 26.5615 80.0658 27.2682 79.1407 27.8598C78.2142 28.4482 77.3045 28.8258 76.4117 28.9944C75.5174 29.1662 74.7291 29.0106 74.0453 28.5276Z" fill="#E9C140"/>
</g>
</svg>
